<?xml version="1.0" standalone="no"?>
<!DOCTYPE svg PUBLIC "-//W3C//DTD SVG 20010904//EN"
 "http://www.w3.org/TR/2001/REC-SVG-20010904/DTD/svg10.dtd">
<svg version="1.0" xmlns="http://www.w3.org/2000/svg"
 width="128.000000pt" height="128.000000pt" viewBox="0 0 128.000000 128.000000"
 preserveAspectRatio="xMidYMid meet">
<metadata>
Created by potrace 1.15, written by Peter Selinger 2001-2017
</metadata>
<g transform="translate(0.000000,128.000000) scale(0.100000,-0.100000)"
fill="#000000" stroke="none">
<path d="M771 1182 c-52 -26 -74 -63 -82 -137 -6 -61 -9 -67 -69 -132 -66 -72
-90 -111 -111 -181 l-13 -44 -100 6 c-56 3 -137 9 -180 12 -107 8 -158 -1
-190 -33 l-26 -26 0 -222 c0 -221 0 -222 24 -248 33 -35 55 -39 177 -33 57 4
162 9 232 12 l128 5 39 -35 c21 -19 54 -38 73 -41 18 -4 125 -5 238 -3 227 3
245 8 294 72 22 29 30 58 46 163 11 70 22 186 25 258 5 120 4 133 -15 163 -35
54 -87 72 -220 72 -104 0 -113 1 -105 18 19 44 43 152 43 196 1 72 -30 130
-83 155 -52 26 -81 26 -125 3z m99 -92 c29 -29 26 -95 -11 -203 -18 -54 -28
-101 -24 -115 10 -39 59 -52 195 -52 115 0 122 -1 145 -25 29 -28 29 -24 11
-185 -28 -245 -36 -286 -63 -312 -24 -22 -31 -23 -233 -26 l-208 -3 -43 38
-42 38 -118 3 -119 4 0 173 0 173 100 4 c104 3 119 10 120 50 0 46 45 133 99
191 82 90 82 90 91 162 12 97 53 132 100 85z m-602 -472 c17 -17 17 -369 0
-386 -12 -12 -143 -17 -172 -6 -14 5 -16 32 -16 199 0 145 3 195 13 198 26 11
163 7 175 -5z"/>
</g>
</svg>
